<svg xmlns="http://www.w3.org/2000/svg" xmlns:xlink="http://www.w3.org/1999/xlink" width="500" zoomAndPan="magnify" viewBox="0 0 375 374.999991" height="500" preserveAspectRatio="xMidYMid meet" version="1.0"><defs><g/><clipPath id="2884af2256"><path d="M 16.40625 150.492188 L 90.039062 150.492188 L 90.039062 224.757812 L 16.40625 224.757812 Z M 16.40625 150.492188 " clip-rule="nonzero"/></clipPath><clipPath id="9d73963bca"><path d="M 48 190 L 58 190 L 58 224.5 L 48 224.5 Z M 48 190 " clip-rule="nonzero"/></clipPath><clipPath id="aeb2a2846e"><path d="M 53 175 L 86.867188 175 L 86.867188 220 L 53 220 Z M 53 175 " clip-rule="nonzero"/></clipPath><clipPath id="b99ffb39dd"><path d="M 19.582031 150.234375 L 62 150.234375 L 62 220 L 19.582031 220 Z M 19.582031 150.234375 " clip-rule="nonzero"/></clipPath></defs><g clip-path="url(#2884af2256)"><path fill="#ffb822" d="M 54.359375 151.054688 L 50.617188 151.367188 L 51.261719 151.414062 L 54.359375 151.054688 M 58.703125 155.082031 L 58.484375 155.097656 L 58.53125 155.109375 L 58.703125 155.082031 M 57.675781 155.152344 L 55.25 155.320312 L 56.167969 155.441406 L 57.855469 155.203125 L 57.675781 155.152344 M 51.839844 156.027344 L 51.910156 156.035156 L 51.65625 156.074219 L 51.839844 156.027344 M 48.871094 155.503906 L 47.746094 155.851562 L 46.621094 156.195312 L 47.273438 155.722656 L 48.871094 155.503906 M 49.460938 156.65625 L 49.421875 156.65625 L 49.382812 156.660156 L 49.109375 156.75 C 49.226562 156.71875 49.34375 156.6875 49.460938 156.65625 M 55.554688 156.511719 L 58.046875 156.832031 L 58.15625 156.953125 L 55.554688 156.550781 L 52.953125 156.792969 L 50.316406 156.636719 L 55.554688 156.511719 M 60.996094 157.25 L 61.03125 157.261719 L 61.0625 157.273438 L 61.046875 157.273438 C 61.03125 157.265625 61.015625 157.257812 60.996094 157.25 M 53.3125 150.539062 L 60.457031 152.222656 L 64.226562 152.765625 L 68.601562 154.773438 L 73.859375 157.472656 L 67.375 153.546875 L 65.425781 152.730469 L 59.121094 150.828125 L 53.3125 150.539062 M 61.332031 157.398438 L 61.59375 157.460938 L 61.714844 157.503906 L 61.492188 157.46875 L 61.332031 157.398438 M 58.53125 155.109375 L 57.855469 155.203125 L 66.871094 157.648438 L 66.507812 157.445312 L 61.4375 155.695312 L 58.53125 155.109375 M 51.570312 155.992188 L 51.828125 156.027344 L 51.640625 156.074219 L 51.3125 156.121094 L 47.367188 157.121094 L 51.578125 156.09375 L 49.460938 156.65625 L 50.113281 156.640625 L 47.921875 157.261719 L 47.539062 157.296875 L 47.203125 157.449219 L 46.972656 157.472656 L 49.109375 156.75 L 46.601562 157.421875 L 46.472656 157.515625 L 44.675781 157.679688 L 45.109375 157.484375 L 51.570312 155.992188 M 46.15625 157.746094 L 46.136719 157.757812 L 46.117188 157.773438 C 46.023438 157.800781 45.929688 157.828125 45.835938 157.855469 C 45.941406 157.816406 46.050781 157.78125 46.15625 157.746094 M 66.871094 157.648438 L 67.066406 157.757812 L 67.257812 157.867188 L 67.332031 157.773438 L 66.871094 157.648438 M 53.777344 152.242188 L 45.933594 154.363281 L 39.179688 157.523438 L 38.679688 157.878906 L 39.371094 157.601562 L 39.683594 157.375 L 46.648438 154.234375 L 53.699219 152.398438 L 53.777344 152.242188 M 42.632812 155.007812 L 40.707031 155.234375 L 35.394531 158.066406 L 41.484375 155.277344 L 36.445312 157.832031 L 42.632812 155.007812 M 41.039062 157.527344 L 40.46875 158.128906 L 39.105469 158.570312 C 39.75 158.222656 40.394531 157.875 41.039062 157.527344 M 44.035156 158.460938 L 42.792969 158.980469 L 43.054688 158.789062 L 44.035156 158.460938 M 65.777344 158.941406 L 66.089844 159.097656 C 66.183594 159.113281 66.277344 159.132812 66.371094 159.148438 C 66.171875 159.078125 65.976562 159.007812 65.777344 158.941406 M 68.257812 159.453125 L 69.519531 159.730469 L 68.375 159.519531 L 68.257812 159.453125 M 41.308594 160.0625 L 41.214844 160.128906 L 41.121094 160.199219 C 41.21875 160.152344 41.320312 160.109375 41.421875 160.0625 C 41.382812 160.0625 41.347656 160.0625 41.308594 160.0625 M 63.90625 158.492188 L 65.515625 158.847656 L 65.777344 158.941406 L 65.65625 158.878906 L 66.757812 159.121094 L 66.953125 159.257812 L 66.371094 159.148438 L 67.253906 159.460938 L 68.476562 160.300781 L 67.722656 159.917969 L 67.207031 159.5625 L 67.4375 159.777344 L 66.089844 159.097656 L 64.210938 158.753906 L 63.679688 158.492188 L 63.90625 158.492188 M 76.675781 160.480469 L 76.679688 160.488281 L 76.6875 160.492188 L 76.683594 160.484375 L 76.675781 160.480469 M 74.597656 160.199219 L 74.535156 160.207031 L 74.472656 160.210938 L 75.300781 160.863281 C 75.066406 160.640625 74.832031 160.421875 74.597656 160.199219 M 74.015625 160.257812 L 74.421875 160.628906 L 74.824219 161 C 74.519531 160.757812 74.210938 160.515625 73.90625 160.269531 L 74.015625 160.257812 M 45.625 158.132812 L 45.519531 158.210938 L 41.421875 160.0625 L 42.582031 160.085938 L 42.453125 160.40625 L 40.179688 160.882812 L 41.121094 160.199219 L 40.023438 160.695312 L 39.722656 160.976562 L 39.695312 160.984375 L 39.546875 161.066406 L 40.800781 160.050781 L 41.308594 160.0625 L 42.605469 159.117188 L 45.625 158.132812 M 37.34375 159.054688 L 36.929688 159.242188 L 36.515625 159.425781 C 35.644531 160.050781 34.773438 160.675781 33.902344 161.296875 L 35.570312 160.328125 L 37.34375 159.054688 M 33.902344 161.296875 L 33.027344 161.804688 L 32.800781 162.039062 L 32.8125 162.175781 L 33.183594 161.8125 L 33.902344 161.296875 M 71.234375 157.433594 L 77.359375 162.359375 L 77.398438 162.367188 L 74.660156 159.214844 L 71.234375 157.433594 M 38.628906 162.011719 L 38.265625 162.351562 L 37.90625 162.691406 C 37.824219 162.730469 37.746094 162.769531 37.664062 162.808594 L 37.914062 162.53125 L 38.628906 162.011719 M 32.8125 162.175781 L 32.300781 162.679688 L 31.792969 163.179688 C 32.140625 162.96875 32.492188 162.757812 32.84375 162.542969 C 32.832031 162.421875 32.824219 162.300781 32.8125 162.175781 M 33.449219 161.375 L 31.890625 162.570312 L 31.003906 163.65625 L 31.542969 163.332031 L 32.800781 162.039062 L 32.792969 161.945312 L 33.027344 161.804688 L 33.449219 161.375 M 34.886719 162.957031 L 33.808594 163.988281 L 34.402344 163.300781 L 34.886719 162.957031 M 76.6875 160.492188 L 78.960938 163.019531 L 81.238281 165.542969 C 80.53125 164.5 79.824219 163.453125 79.121094 162.410156 L 76.6875 160.492188 M 68.046875 165.222656 L 68.191406 165.296875 L 68.335938 165.375 L 68.824219 165.894531 L 68.589844 165.75 L 68.046875 165.222656 M 33.410156 158.964844 L 31.265625 160.347656 L 26.351562 166.066406 L 30.28125 161.617188 L 33.875 159.28125 L 33.410156 158.964844 M 74.644531 166.347656 L 74.753906 166.429688 L 74.859375 166.511719 L 74.660156 166.375 L 74.644531 166.347656 M 80.265625 165.664062 L 80.921875 166.554688 L 81.574219 167.445312 L 81.351562 166.917969 L 80.265625 165.664062 M 76.976562 164.222656 L 77.183594 164.957031 L 77.175781 164.984375 L 77.003906 164.8125 L 77.832031 166.777344 L 78.578125 167.464844 L 76.976562 164.222656 M 31.023438 167.625 L 30.953125 167.746094 L 30.945312 167.75 L 31.023438 167.625 M 69.460938 164.046875 L 71.445312 165.742188 L 73.429688 167.433594 L 73.65625 167.800781 L 70.359375 165.058594 L 69.460938 164.046875 M 76.371094 163.207031 L 77.550781 164.929688 L 78.730469 166.648438 L 79.554688 167.839844 C 79.167969 166.917969 78.78125 165.996094 78.390625 165.074219 L 76.371094 163.207031 M 79.234375 165.996094 L 79.910156 167 L 80.585938 168 L 80.09375 167.171875 L 79.234375 165.996094 M 78.632812 168.472656 L 78.632812 168.476562 L 78.636719 168.480469 C 78.644531 168.488281 78.65625 168.5 78.667969 168.507812 L 78.632812 168.472656 M 73.890625 168.65625 L 73.90625 168.683594 L 73.925781 168.710938 L 73.894531 168.660156 L 73.890625 168.65625 M 36.027344 166.722656 L 35.90625 166.785156 L 35.78125 166.847656 C 35.019531 167.523438 34.257812 168.199219 33.496094 168.878906 C 34.183594 168.363281 34.867188 167.847656 35.554688 167.332031 L 36.027344 166.722656 M 56.074219 170.363281 L 55.839844 170.402344 L 55.878906 170.371094 C 55.945312 170.367188 56.007812 170.367188 56.074219 170.363281 M 58.667969 170.265625 L 58.15625 170.484375 L 57.640625 170.304688 L 58.667969 170.265625 M 51.625 170.710938 L 50.609375 171.265625 L 49.820312 171.398438 L 50.15625 170.960938 L 51.625 170.710938 M 85.886719 166.347656 L 87.902344 172.058594 C 87.808594 171.636719 87.714844 171.21875 87.617188 170.796875 L 85.886719 166.347656 M 77.507812 160.289062 L 81.058594 164.460938 L 83.125 168.417969 L 84.488281 171.402344 L 84.992188 172.085938 L 85.015625 172.15625 L 84.71875 170.515625 L 81.75 165.265625 L 77.507812 160.289062 M 48.335938 172.121094 L 48 172.550781 L 47.980469 172.566406 L 47.335938 173.164062 L 48.335938 172.121094 M 36.535156 166.070312 L 36.027344 166.722656 L 37.066406 166.199219 L 35.554688 167.332031 L 34.78125 168.328125 L 34.269531 169.484375 L 31.605469 172.816406 L 30.566406 174.730469 L 30.882812 173.746094 L 34.144531 169.074219 L 30.515625 173.960938 L 33.085938 169.390625 L 35 166.953125 L 36.535156 166.070312 M 83.460938 172.117188 L 83.570312 172.632812 L 84.660156 175.703125 L 84.320312 173.976562 L 83.609375 172.28125 L 83.460938 172.117188 M 73.210938 167.535156 L 73.851562 168.125 L 76.523438 172.472656 L 76.945312 173.683594 L 73.925781 168.710938 L 77.554688 175.417969 L 77.746094 175.96875 L 76.113281 173.664062 L 73.84375 168.816406 L 73.167969 168.15625 L 73.890625 168.65625 L 73.210938 167.535156 M 84.660156 175.703125 L 84.683594 175.816406 L 84.703125 175.925781 L 84.929688 176.457031 C 84.839844 176.203125 84.75 175.953125 84.660156 175.703125 M 83.832031 173.855469 L 84.160156 175.402344 L 84.863281 176.734375 C 84.8125 176.464844 84.757812 176.195312 84.703125 175.925781 L 83.832031 173.855469 M 30.390625 174.183594 L 30.066406 175.210938 L 29.746094 176.238281 C 29.632812 176.445312 29.519531 176.652344 29.40625 176.859375 L 29.820312 175.195312 L 30.390625 174.183594 M 26.875 176.789062 L 26.851562 176.878906 L 26.828125 176.972656 L 26.757812 177.097656 L 26.875 176.789062 M 84.929688 176.457031 L 85.066406 176.839844 L 85.203125 177.226562 C 85.183594 177.140625 85.164062 177.054688 85.144531 176.96875 L 84.929688 176.457031 M 85.371094 178.335938 L 85.339844 179.015625 L 85.421875 179.226562 C 85.40625 178.929688 85.386719 178.632812 85.371094 178.335938 M 43.898438 179.464844 L 43.878906 179.511719 L 43.863281 179.5625 C 43.863281 179.550781 43.859375 179.539062 43.859375 179.527344 C 43.871094 179.507812 43.882812 179.484375 43.898438 179.464844 M 44.738281 178.054688 L 44.054688 180.808594 L 43.960938 180.191406 L 44.613281 178.261719 L 44.738281 178.054688 M 43.984375 178.023438 L 43.15625 181.25 L 43.652344 178.554688 L 43.984375 178.023438 M 85.421875 179.226562 L 85.457031 179.789062 L 85.488281 180.351562 L 86.035156 181.671875 L 85.667969 179.84375 L 85.421875 179.226562 M 78.261719 177.949219 L 78.738281 180.214844 C 78.667969 180.03125 78.601562 179.847656 78.53125 179.664062 L 78.769531 182.160156 C 78.601562 180.757812 78.429688 179.355469 78.261719 177.949219 M 78.742188 176.664062 L 80.007812 180.679688 L 80.269531 182.382812 L 79.113281 178.15625 L 78.742188 176.664062 M 85.300781 179.898438 L 85.261719 180.78125 L 85.253906 181.464844 L 85.636719 182.902344 L 85.488281 180.351562 L 85.300781 179.898438 M 19.449219 175.820312 L 19.410156 177.039062 C 19.453125 177.417969 19.5 177.792969 19.546875 178.171875 C 18.894531 179.992188 18.246094 181.8125 17.597656 183.632812 L 19.449219 175.820312 M 87.902344 172.058594 L 89.292969 178.25 L 90.003906 184.640625 L 89.496094 177.335938 L 88.890625 175.460938 L 88.792969 174.585938 L 87.902344 172.058594 M 53.21875 184.800781 L 53.214844 184.851562 L 53.210938 184.90625 L 53.207031 184.925781 C 53.210938 184.882812 53.214844 184.84375 53.21875 184.800781 M 79.414062 185.117188 L 79.429688 185.269531 L 79.449219 185.421875 L 79.421875 185.632812 L 79.371094 185.355469 L 79.414062 185.117188 M 55.875 185.378906 L 55.710938 185.824219 L 55.550781 186.269531 L 55.539062 185.953125 C 55.652344 185.761719 55.761719 185.570312 55.875 185.378906 M 79.300781 185.742188 L 79.324219 186.484375 L 79.308594 186.597656 C 79.289062 186.417969 79.265625 186.238281 79.246094 186.0625 L 79.300781 185.742188 M 87.878906 183.742188 L 87.921875 185.289062 L 87.960938 186.835938 L 88.070312 185.519531 C 88.007812 184.925781 87.945312 184.332031 87.878906 183.742188 M 80.585938 184.4375 L 80.953125 186.8125 C 80.9375 187.039062 80.917969 187.265625 80.902344 187.492188 L 80.585938 184.4375 M 56.003906 187.347656 L 55.808594 187.679688 L 55.617188 188.015625 L 55.597656 187.546875 C 55.734375 187.480469 55.867188 187.414062 56.003906 187.347656 M 69.382812 187.890625 L 69.390625 187.910156 L 69.394531 187.925781 L 69.332031 188.085938 C 69.347656 188.019531 69.367188 187.957031 69.382812 187.890625 M 79.148438 186.597656 L 79.273438 186.90625 L 79.109375 188.28125 C 79.089844 188.046875 79.066406 187.816406 79.046875 187.585938 C 79.042969 187.460938 79.039062 187.335938 79.035156 187.210938 L 79.148438 186.597656 M 79.605469 187.722656 L 79.699219 187.949219 L 79.710938 188.113281 L 79.582031 188.84375 L 79.539062 188.503906 L 79.621094 188.191406 C 79.617188 188.035156 79.609375 187.878906 79.605469 187.722656 M 55.066406 187.382812 L 55.363281 187.570312 L 55.4375 188.320312 L 54.789062 189.433594 L 55.066406 187.382812 M 87.40625 187.570312 L 87.265625 188.476562 C 87.207031 189.207031 87.144531 189.9375 87.082031 190.667969 C 87.21875 190.242188 87.355469 189.816406 87.488281 189.386719 L 87.40625 187.570312 M 78.273438 191.089844 L 78.273438 191.097656 C 78.269531 191.101562 78.269531 191.109375 78.265625 191.113281 C 78.269531 191.105469 78.273438 191.097656 78.273438 191.089844 M 79.394531 189.0625 L 79.441406 190.695312 L 79.488281 192.324219 C 79.40625 191.4375 79.324219 190.550781 79.242188 189.667969 C 79.292969 189.464844 79.34375 189.265625 79.394531 189.0625 M 41.742188 194.429688 L 41.804688 194.671875 L 41.871094 194.914062 C 41.847656 194.898438 41.824219 194.882812 41.796875 194.863281 C 41.78125 194.71875 41.761719 194.574219 41.742188 194.429688 M 42.636719 195.277344 L 42.753906 195.449219 L 42.875 195.621094 L 42.675781 195.480469 C 42.660156 195.414062 42.648438 195.34375 42.636719 195.277344 M 88.894531 186.351562 L 88.347656 187.417969 L 88.050781 190.144531 L 88.085938 191.453125 L 87.820312 192.253906 L 87.695312 193.402344 L 87.355469 195.910156 L 88.214844 193.34375 L 88.730469 192.757812 L 88.894531 186.351562 M 19.820312 183.332031 L 19.136719 187.929688 L 19.1875 189.683594 L 20.757812 196.136719 L 20.113281 192.386719 L 19.527344 188.359375 L 19.820312 183.332031 M 40.742188 195.085938 L 41.042969 195.464844 L 41.285156 196.199219 L 41.0625 196.046875 L 40.742188 195.085938 M 42.035156 196.707031 L 42.046875 196.71875 L 42.058594 196.734375 L 42.039062 196.71875 L 42.035156 196.707031 M 41.945312 195.988281 L 42.214844 196.234375 L 42.410156 196.976562 L 42.164062 196.804688 L 42.023438 196.609375 L 41.945312 195.988281 M 43.503906 197.40625 L 43.566406 197.460938 L 43.628906 197.519531 L 43.800781 197.929688 L 43.71875 197.875 L 43.503906 197.40625 M 27.097656 197.925781 L 27.105469 197.949219 L 27.097656 197.925781 M 19.695312 194.566406 L 20.605469 196.601562 L 21.519531 198.632812 C 21.527344 198.640625 21.535156 198.648438 21.542969 198.65625 L 19.695312 194.566406 M 84.308594 194.109375 L 83.945312 195.003906 L 82.773438 197.480469 L 82.402344 198.722656 L 82.902344 198.863281 L 84.308594 194.109375 M 75.507812 197.300781 L 75.261719 197.867188 L 75.011719 198.433594 L 74.300781 199.695312 C 74.703125 198.898438 75.105469 198.097656 75.507812 197.300781 M 87.960938 186.835938 L 87.433594 193.253906 L 86.25 196.367188 L 84.945312 200.144531 L 85.472656 199.355469 L 87.820312 192.253906 L 88.050781 190.144531 L 87.960938 186.835938 M 27.28125 197.320312 L 28.136719 198.914062 L 28.992188 200.511719 C 28.8125 200.285156 28.632812 200.054688 28.453125 199.828125 L 27.28125 197.320312 M 42.175781 200.71875 L 43.625 202.066406 L 43.351562 202.042969 L 42.515625 201.277344 L 42.175781 200.71875 M 41.78125 198.214844 L 41.96875 198.304688 L 42.464844 199.832031 L 44.265625 202.125 L 44.097656 202.109375 L 42.511719 200.414062 L 41.78125 198.214844 M 43.9375 201.550781 L 44.269531 201.875 L 44.476562 202.144531 L 44.378906 202.136719 L 43.9375 201.550781 M 48.382812 202.136719 L 48.988281 202.453125 L 48.632812 202.511719 L 48.382812 202.136719 M 44.75 202.515625 L 44.765625 202.515625 L 44.777344 202.53125 L 44.777344 202.535156 L 44.75 202.515625 M 84.945312 200.144531 L 84.5625 200.714844 L 84.183594 201.285156 C 84.113281 201.839844 84.042969 202.394531 83.976562 202.949219 C 84.300781 202.015625 84.621094 201.078125 84.945312 200.144531 M 49.5 202.875 L 49.699219 203.113281 L 49.585938 203.121094 L 48.941406 202.980469 L 49.5 202.875 M 28.992188 202.125 L 29.207031 202.394531 L 29.675781 203.425781 L 28.992188 202.125 M 80.804688 199.042969 L 78.191406 203.515625 L 77.925781 203.644531 L 78.417969 202.648438 L 80.804688 199.042969 M 45.960938 204.242188 L 46.457031 204.707031 L 46.84375 205.203125 L 46.773438 205.183594 L 46.425781 204.863281 L 45.960938 204.242188 M 80.40625 205.261719 L 80.335938 205.371094 C 80.34375 205.363281 80.351562 205.359375 80.363281 205.351562 L 80.40625 205.261719 M 31.300781 205.1875 L 31.421875 205.273438 L 31.546875 205.359375 L 31.574219 205.394531 C 31.484375 205.328125 31.390625 205.257812 31.300781 205.1875 M 77.6875 206.449219 L 77.421875 206.753906 L 77.382812 206.773438 L 77.359375 206.730469 L 77.6875 206.449219 M 83.664062 199.113281 L 80.40625 205.261719 L 82.597656 201.914062 L 81.65625 204.230469 L 80.363281 205.351562 L 79.769531 206.46875 L 79.40625 206.792969 L 80.335938 205.371094 L 79.996094 205.664062 L 83.664062 199.113281 M 74.996094 207.683594 L 74.863281 207.855469 L 74.726562 208.03125 C 74.71875 208.035156 74.714844 208.039062 74.707031 208.042969 L 74.996094 207.683594 M 35.285156 208.167969 L 35.75 208.402344 L 35.8125 208.46875 L 35.378906 208.238281 L 35.285156 208.167969 M 75.171875 208.617188 L 74.769531 209.015625 L 74.363281 209.414062 C 74.300781 209.433594 74.238281 209.457031 74.175781 209.476562 C 74.507812 209.191406 74.839844 208.902344 75.171875 208.617188 M 36.117188 209.410156 L 37.382812 210.199219 L 37.417969 210.238281 L 36.125 209.417969 L 36.117188 209.410156 M 66.628906 210.628906 L 63.90625 212.054688 L 64.921875 211.453125 L 66.628906 210.628906 M 78.964844 204.988281 L 78.199219 205.863281 L 78.519531 205.3125 L 77.246094 206.523438 L 77.003906 206.09375 L 76.925781 206.167969 L 76.882812 206.609375 L 75.734375 207.964844 L 74.128906 209.492188 L 73.316406 209.761719 L 73.171875 209.941406 L 73.304688 209.765625 L 72.742188 209.953125 L 71.554688 210.730469 L 69.652344 212.253906 L 72.347656 211.050781 L 73.851562 209.757812 L 73.429688 210.15625 L 76.613281 207.675781 L 75.3125 209.15625 L 76.09375 208.625 L 74.925781 210.027344 L 77.570312 206.929688 L 77.996094 206.601562 L 79.058594 205.242188 L 78.964844 204.988281 M 89.496094 197.203125 L 86.324219 204.296875 L 84.730469 206.886719 L 84.621094 208.296875 L 80.582031 212.488281 L 81.691406 211.949219 L 86.078125 207.074219 L 88.539062 203.285156 L 87.46875 204.414062 L 89.496094 197.203125 M 68.523438 211.699219 L 68.335938 211.875 L 67.082031 212.503906 L 66.796875 212.523438 L 68.523438 211.699219 M 25.414062 209.097656 L 25.59375 209.703125 L 25.769531 210.308594 L 28.660156 212.878906 C 28.589844 212.710938 28.519531 212.542969 28.449219 212.375 C 27.4375 211.28125 26.425781 210.191406 25.414062 209.097656 M 61.402344 212.695312 L 62.347656 212.957031 L 61.765625 213.199219 L 61.289062 213.078125 L 60.710938 213.085938 L 60.488281 213.015625 L 61.402344 212.695312 M 40.722656 213.859375 L 40.753906 213.875 L 40.722656 213.859375 M 64.785156 213.652344 L 63.566406 214.265625 L 62.203125 214.25 L 62.671875 214.089844 L 64.785156 213.652344 M 58.863281 213.820312 L 59.855469 213.949219 L 58.5 214.28125 L 57.15625 214.191406 L 58.019531 213.886719 L 58.863281 213.820312 M 80.109375 210.226562 L 79.671875 210.445312 L 79.234375 210.660156 L 74.398438 215.144531 C 76.300781 213.503906 78.203125 211.867188 80.109375 210.226562 M 89.394531 204.507812 L 87.820312 206.628906 L 86.246094 208.746094 L 79.96875 215.175781 L 84.992188 210.753906 L 89.394531 204.507812 M 59.0625 215.328125 L 59.074219 215.332031 L 59.085938 215.332031 C 59.074219 215.332031 59.0625 215.332031 59.046875 215.335938 L 59.0625 215.328125 M 79.96875 215.175781 L 79.832031 215.292969 L 79.699219 215.414062 C 79.726562 215.394531 79.757812 215.378906 79.785156 215.363281 C 79.847656 215.300781 79.90625 215.238281 79.96875 215.175781 M 21.542969 198.65625 L 23.0625 202.023438 L 28.324219 208.917969 L 32.421875 212.757812 L 36.023438 215.109375 L 37.53125 215.5625 L 34.917969 213.78125 L 32.683594 211.726562 L 30.621094 210.464844 L 24.789062 203.664062 L 21.800781 198.914062 L 21.542969 198.65625 M 40.398438 213.464844 L 40.753906 213.875 L 42.230469 214.519531 L 42.175781 214.503906 L 40.753906 213.875 L 40.773438 213.894531 L 41.730469 214.375 L 41.003906 214.164062 L 41.234375 214.429688 L 44.535156 215.699219 L 45.023438 215.765625 L 44.007812 215.316406 L 44.042969 215.3125 L 45.101562 215.773438 L 45.386719 215.8125 L 44.390625 215.269531 L 44.679688 215.234375 L 43.925781 215.015625 L 43.234375 214.632812 L 40.398438 213.464844 M 48.980469 216.296875 L 49.023438 216.308594 L 48.9375 216.296875 C 48.953125 216.296875 48.964844 216.296875 48.980469 216.296875 M 49.042969 216.292969 L 54.570312 216.460938 L 54.929688 216.5 L 51.488281 216.644531 L 49.34375 216.351562 L 49.027344 216.292969 L 49.042969 216.292969 M 34.308594 210.34375 L 40.101562 213.902344 L 41.003906 214.164062 L 40.773438 213.894531 L 37.636719 212.324219 L 40.398438 213.464844 L 39.765625 212.734375 L 43.234375 214.636719 L 44.679688 215.234375 L 47.816406 216.144531 L 45.386719 215.8125 L 46.160156 216.238281 L 45.101562 215.773438 L 45.023438 215.765625 L 47.101562 216.683594 L 44.535156 215.699219 L 43.214844 215.519531 L 37.054688 212.421875 L 34.308594 210.34375 M 70.699219 215.070312 L 67.679688 216.460938 L 67.527344 216.753906 L 65.027344 217.148438 L 65.839844 216.597656 L 67.757812 216.023438 L 68.15625 215.792969 L 70.699219 215.070312 M 74.503906 216.363281 L 70.699219 217.933594 L 71.933594 217.582031 C 72.789062 217.175781 73.648438 216.769531 74.503906 216.363281 M 47.75 216.933594 L 56.136719 218.554688 L 58.609375 218.914062 L 56.710938 219.179688 L 50.066406 217.824219 L 47.75 216.933594 M 79.699219 215.414062 L 76.285156 217.371094 L 72.867188 219.332031 L 77.9375 216.964844 L 79.699219 215.414062 M 50.8125 153.273438 L 45.738281 155.261719 C 45.589844 155.097656 43.464844 155.878906 39.371094 157.601562 L 37.34375 159.054688 L 39.148438 158.242188 C 36.195312 159.878906 34.375 161.023438 33.6875 161.675781 L 28.269531 167.425781 L 31.792969 163.179688 L 29.890625 165.023438 L 31.003906 163.65625 L 30.105469 163.9375 L 34.757812 160.035156 L 33.449219 161.375 L 35.238281 160.003906 C 35.796875 159.941406 36.941406 159.234375 38.679688 157.878906 L 37.117188 158.507812 L 37.773438 157.59375 L 34.371094 159.832031 L 29.160156 164.710938 L 25.082031 170.375 L 21.5625 179.125 L 23.933594 171.84375 L 23.535156 171.777344 L 22.527344 173.769531 L 21.007812 179.339844 L 19.992188 186.40625 L 20.761719 193.96875 L 23.9375 200.871094 L 28.285156 207.152344 L 33.820312 212.316406 L 40.414062 216.304688 L 47.738281 218.675781 L 55.191406 219.339844 C 52.933594 219.476562 50.28125 219.441406 47.234375 219.234375 L 55.28125 219.785156 L 62.074219 219.238281 L 63.25 218.632812 L 72.648438 215.550781 L 79.234375 210.660156 L 84.429688 205.847656 L 87.128906 200.222656 L 80.9375 207.816406 L 75.433594 212.773438 L 73.960938 213.042969 L 78.070312 210.195312 L 81.023438 207.375 C 81.339844 206.660156 81.386719 206.308594 81.160156 206.324219 L 80.367188 206.996094 L 84.183594 201.285156 L 86.617188 194.753906 L 87.324219 191.585938 L 86.984375 191.828125 L 87.082031 190.667969 L 86.777344 191.625 L 87.265625 188.476562 L 87.386719 187.074219 L 87.40625 187.570312 L 87.671875 185.867188 C 87.46875 184.671875 87.394531 182.640625 87.453125 179.78125 L 87.878906 183.742188 L 87.78125 180.144531 L 87.347656 178.804688 L 87.359375 178.925781 L 85.015625 172.15625 L 85.136719 172.820312 L 84.488281 171.402344 L 81.574219 167.445312 L 83.609375 172.28125 L 84.09375 172.808594 L 85.144531 176.96875 L 87.085938 181.238281 L 87.1875 182.664062 L 86.671875 183.710938 L 86.328125 188.082031 C 86.398438 185.742188 86.167969 184.015625 85.636719 182.902344 L 85.777344 185.285156 L 84.800781 192.433594 L 84.308594 194.109375 L 85.613281 190.867188 L 83.3125 198.09375 L 83.851562 197.273438 L 86.285156 188.648438 L 86.191406 189.851562 L 84.078125 197.339844 L 80.308594 204.675781 L 81.25 202.433594 L 79.058594 205.242188 L 79.214844 205.679688 L 77.996094 206.601562 L 76.117188 209 C 75.058594 210.015625 74.480469 210.425781 74.378906 210.226562 L 75.3125 209.15625 L 70.257812 212.621094 L 68.238281 213.21875 L 73.070312 209.523438 C 73.429688 209.402344 73.714844 209.214844 73.921875 208.949219 L 73.316406 209.761719 L 74.125 208.761719 L 76.925781 206.167969 L 76.945312 205.984375 L 77.003906 206.09375 L 79.285156 203.980469 L 78.519531 205.3125 C 78.683594 205.308594 79.117188 204.878906 79.8125 204.019531 L 82.265625 198.828125 L 81.566406 200.035156 C 82.1875 199.445312 83.179688 196.628906 84.539062 191.585938 L 85.175781 187.542969 L 85.253906 181.464844 L 84.230469 177.640625 C 84.640625 178.304688 85 179.058594 85.300781 179.898438 L 85.339844 179.015625 L 82.722656 172.398438 L 81.492188 171.253906 L 78.5 167.144531 L 79.066406 169.316406 L 78.492188 168.34375 C 78.429688 168.261719 78.476562 168.304688 78.632812 168.472656 C 78.511719 168.390625 78.242188 167.824219 77.832031 166.777344 C 76.804688 166.046875 75.640625 164.765625 74.339844 162.9375 L 70.601562 160.015625 L 70.765625 159.851562 L 67.257812 157.867188 L 67.003906 158.199219 L 65.582031 157.898438 L 58.710938 155.996094 L 58.183594 155.703125 L 56.167969 155.441406 L 51.851562 156.023438 L 55.25 155.320312 L 52.667969 154.984375 L 55.582031 154.585938 C 57.40625 155.171875 58.375 155.34375 58.484375 155.097656 L 55.792969 154.554688 L 56.753906 154.421875 L 65.816406 156.527344 L 74.253906 161.253906 L 76.371094 163.207031 L 76.179688 162.429688 L 79.234375 165.996094 L 77.542969 163.484375 L 78.355469 164.230469 C 79.375 166.191406 80.675781 168.148438 82.25 170.109375 L 83.832031 173.855469 L 83.570312 172.632812 L 82.757812 170.34375 L 78.769531 163.945312 L 80.265625 165.664062 L 77.851562 162.46875 C 77.265625 162.214844 77.25 162.335938 77.796875 162.828125 L 75.300781 160.863281 L 77.949219 163.363281 L 76.957031 162.6875 L 74.03125 160.257812 L 74.472656 160.210938 L 71.34375 157.75 L 62.261719 153.828125 L 50.8125 153.273438 M 70.699219 217.933594 L 63.664062 219.929688 L 61.160156 220.625 L 61.144531 220.804688 L 67.351562 219.902344 L 65.832031 219.9375 L 70.699219 217.933594 M 44.265625 218.5625 L 44.085938 218.875 L 51.605469 221.113281 L 52.371094 220.964844 L 44.265625 218.5625 M 46.875 151.210938 L 43.882812 151.488281 L 37.769531 154.125 L 31.125 158.238281 L 29.59375 158.835938 L 24.199219 165 L 26.246094 162.046875 C 23.929688 164.644531 22.339844 166.675781 21.476562 168.136719 L 19.027344 174.355469 L 16.804688 182.957031 L 16.398438 191.902344 L 17.621094 195.3125 L 17.867188 194.929688 L 17.542969 192.746094 L 19.507812 198.039062 L 22.808594 203.890625 L 27.445312 210.257812 C 23.292969 205.058594 20.949219 201.933594 20.410156 200.890625 L 24.90625 207.644531 L 29.867188 212.867188 C 31.878906 214.140625 33.910156 215.539062 35.960938 217.066406 L 41.773438 219.574219 L 49.058594 221.542969 L 50.546875 221.675781 L 46.070312 220.574219 L 38.242188 217.835938 L 30.964844 213.066406 L 25.347656 207.28125 L 24.644531 206.125 L 30.527344 212.351562 L 36.5625 216.375 L 31.882812 213.085938 L 26.226562 207.699219 L 23.199219 203.328125 L 19.386719 196.167969 L 18.027344 187.078125 L 19.109375 180.78125 L 20.433594 175.582031 L 24.347656 167.226562 L 25.835938 165.433594 L 21.621094 173.074219 L 19.792969 178.429688 L 22.15625 173.519531 L 21.65625 173.882812 L 24.839844 167.316406 L 31.09375 160.058594 L 36.859375 156.703125 L 43.898438 153.480469 L 37.515625 155.886719 L 43.394531 153.398438 L 50.234375 152.023438 L 57.386719 152.433594 L 57.703125 152.21875 L 61.378906 153.03125 L 57.980469 151.890625 L 51.261719 151.414062 C 45.917969 151.964844 42.863281 152.394531 42.097656 152.699219 L 46.875 151.210938 M 68.511719 221.625 L 67.71875 221.757812 L 59.074219 222.902344 L 51.292969 223.289062 L 60.691406 223.082031 L 66.027344 222.15625 L 68.257812 221.878906 L 68.511719 221.625 M 64.929688 223.449219 L 56.0625 224.324219 L 60.414062 224.171875 L 62.160156 224.074219 L 64.929688 223.449219 M 56.0625 224.324219 L 55.910156 224.332031 L 55.757812 224.335938 L 55.875 224.34375 C 55.9375 224.339844 56 224.332031 56.0625 224.324219 M 43.3125 223.238281 L 51.792969 224.476562 L 55.757812 224.335938 L 47.601562 223.789062 L 43.3125 223.238281 " fill-opacity="1" fill-rule="nonzero"/></g><g clip-path="url(#9d73963bca)"><path fill="#958a84" d="M 53.253906 190.15625 C 51.992188 192.480469 50.480469 194.847656 48.722656 197.261719 L 48.722656 224.5 L 57.695312 224.5 L 57.695312 197.171875 C 56.074219 194.914062 54.5625 192.570312 53.253906 190.15625 Z M 53.253906 190.15625 " fill-opacity="1" fill-rule="nonzero"/></g><g clip-path="url(#aeb2a2846e)"><path fill="#1a5f7a" d="M 53.707031 189.300781 C 54.878906 191.511719 56.230469 193.675781 57.695312 195.773438 C 57.96875 196.15625 58.238281 196.539062 58.507812 196.921875 C 64.710938 205.421875 72.828125 212.910156 79.773438 218.820312 L 81.015625 219.878906 L 86.832031 213 L 85.589844 211.941406 C 77 204.65625 70.617188 198.140625 66.085938 192.007812 C 62.25 186.84375 59.726562 181.902344 58.53125 177.28125 C 58.417969 176.808594 58.304688 176.332031 58.214844 175.859375 C 58.078125 176.761719 57.921875 177.664062 57.71875 178.589844 C 56.929688 182.128906 55.597656 185.691406 53.707031 189.300781 Z M 53.707031 189.300781 " fill-opacity="1" fill-rule="nonzero"/></g><g clip-path="url(#b99ffb39dd)"><path fill="#3a865c" d="M 53.074219 150.605469 L 44.480469 165.488281 C 44.414062 165.601562 44.503906 165.734375 44.617188 165.734375 L 48.722656 165.734375 L 48.722656 171.238281 C 48.722656 172.792969 48.5625 174.347656 48.25 175.90625 C 48.15625 176.402344 48.046875 176.898438 47.910156 177.394531 C 44.503906 190.519531 31.199219 203.144531 20.828125 211.941406 L 19.585938 213 L 25.40625 219.855469 L 26.644531 218.796875 C 35.957031 210.878906 42.609375 204.117188 47.550781 197.484375 C 47.660156 197.328125 47.796875 197.171875 47.910156 197.011719 C 48.179688 196.628906 48.449219 196.246094 48.722656 195.886719 C 50.277344 193.675781 51.628906 191.488281 52.78125 189.324219 C 52.9375 189.03125 53.097656 188.738281 53.230469 188.441406 C 56.230469 182.582031 57.695312 176.898438 57.695312 171.261719 L 57.695312 165.757812 L 61.800781 165.757812 C 61.9375 165.757812 62.003906 165.621094 61.9375 165.507812 L 53.34375 150.625 C 53.300781 150.492188 53.140625 150.492188 53.074219 150.605469 Z M 53.074219 150.605469 " fill-opacity="1" fill-rule="nonzero"/></g><g fill="#0c8862" fill-opacity="1"><g transform="translate(103.095759, 208.552517)"><g><path d="M 12.9375 -36.234375 L 12.9375 -25.390625 L 27.5 -25.390625 L 27.5 -18.515625 L 12.9375 -18.515625 L 12.9375 -7.0625 L 29.359375 -7.0625 L 29.359375 0 L 4.28125 0 L 4.28125 -43.296875 L 29.359375 -43.296875 L 29.359375 -36.234375 Z M 12.9375 -36.234375 "/></g></g></g><g fill="#0c8862" fill-opacity="1"><g transform="translate(136.043813, 208.552517)"><g><path d="M 46.890625 -34.8125 C 51.097656 -34.8125 54.492188 -33.519531 57.078125 -30.9375 C 59.660156 -28.351562 60.953125 -24.75 60.953125 -20.125 L 60.953125 0 L 52.28125 0 L 52.28125 -18.953125 C 52.28125 -21.640625 51.597656 -23.691406 50.234375 -25.109375 C 48.867188 -26.535156 47.007812 -27.25 44.65625 -27.25 C 42.300781 -27.25 40.429688 -26.535156 39.046875 -25.109375 C 37.671875 -23.691406 36.984375 -21.640625 36.984375 -18.953125 L 36.984375 0 L 28.3125 0 L 28.3125 -18.953125 C 28.3125 -21.640625 27.628906 -23.691406 26.265625 -25.109375 C 24.898438 -26.535156 23.039062 -27.25 20.6875 -27.25 C 18.289062 -27.25 16.398438 -26.535156 15.015625 -25.109375 C 13.628906 -23.691406 12.9375 -21.640625 12.9375 -18.953125 L 12.9375 0 L 4.28125 0 L 4.28125 -34.3125 L 12.9375 -34.3125 L 12.9375 -30.15625 C 14.0625 -31.601562 15.5 -32.738281 17.25 -33.5625 C 19 -34.394531 20.929688 -34.8125 23.046875 -34.8125 C 25.722656 -34.8125 28.113281 -34.242188 30.21875 -33.109375 C 32.332031 -31.972656 33.96875 -30.351562 35.125 -28.25 C 36.238281 -30.226562 37.859375 -31.816406 39.984375 -33.015625 C 42.109375 -34.210938 44.410156 -34.8125 46.890625 -34.8125 Z M 46.890625 -34.8125 "/></g></g></g><g fill="#0c8862" fill-opacity="1"><g transform="translate(200.949007, 208.552517)"><g><path d="M 8.671875 -38.40625 C 7.140625 -38.40625 5.867188 -38.890625 4.859375 -39.859375 C 3.847656 -40.828125 3.34375 -42.035156 3.34375 -43.484375 C 3.34375 -44.921875 3.847656 -46.125 4.859375 -47.09375 C 5.867188 -48.070312 7.140625 -48.5625 8.671875 -48.5625 C 10.203125 -48.5625 11.472656 -48.070312 12.484375 -47.09375 C 13.492188 -46.125 14 -44.921875 14 -43.484375 C 14 -42.035156 13.492188 -40.828125 12.484375 -39.859375 C 11.472656 -38.890625 10.203125 -38.40625 8.671875 -38.40625 Z M 12.9375 -34.3125 L 12.9375 0 L 4.28125 0 L 4.28125 -34.3125 Z M 12.9375 -34.3125 "/></g></g></g><g fill="#0c8862" fill-opacity="1"><g transform="translate(218.16622, 208.552517)"><g><path d="M 14.375 -27.1875 L 14.375 -10.59375 C 14.375 -9.4375 14.648438 -8.597656 15.203125 -8.078125 C 15.765625 -7.566406 16.707031 -7.3125 18.03125 -7.3125 L 22.046875 -7.3125 L 22.046875 0 L 16.59375 0 C 9.289062 0 5.640625 -3.550781 5.640625 -10.65625 L 5.640625 -27.1875 L 1.546875 -27.1875 L 1.546875 -34.3125 L 5.640625 -34.3125 L 5.640625 -42.796875 L 14.375 -42.796875 L 14.375 -34.3125 L 22.046875 -34.3125 L 22.046875 -27.1875 Z M 14.375 -27.1875 "/></g></g></g><g fill="#0c8862" fill-opacity="1"><g transform="translate(242.196007, 208.552517)"><g><path d="M 12.9375 -28.984375 C 14.0625 -30.804688 15.519531 -32.234375 17.3125 -33.265625 C 19.101562 -34.296875 21.15625 -34.8125 23.46875 -34.8125 L 23.46875 -25.703125 L 21.1875 -25.703125 C 18.457031 -25.703125 16.398438 -25.0625 15.015625 -23.78125 C 13.628906 -22.5 12.9375 -20.269531 12.9375 -17.09375 L 12.9375 0 L 4.28125 0 L 4.28125 -34.3125 L 12.9375 -34.3125 Z M 12.9375 -28.984375 "/></g></g></g><g fill="#0c8862" fill-opacity="1"><g transform="translate(267.216708, 208.552517)"><g><path d="M 8.671875 -38.40625 C 7.140625 -38.40625 5.867188 -38.890625 4.859375 -39.859375 C 3.847656 -40.828125 3.34375 -42.035156 3.34375 -43.484375 C 3.34375 -44.921875 3.847656 -46.125 4.859375 -47.09375 C 5.867188 -48.070312 7.140625 -48.5625 8.671875 -48.5625 C 10.203125 -48.5625 11.472656 -48.070312 12.484375 -47.09375 C 13.492188 -46.125 14 -44.921875 14 -43.484375 C 14 -42.035156 13.492188 -40.828125 12.484375 -39.859375 C 11.472656 -38.890625 10.203125 -38.40625 8.671875 -38.40625 Z M 12.9375 -34.3125 L 12.9375 0 L 4.28125 0 L 4.28125 -34.3125 Z M 12.9375 -34.3125 "/></g></g></g><g fill="#0c8862" fill-opacity="1"><g transform="translate(284.43392, 208.552517)"><g><path d="M 2.046875 -17.15625 C 2.046875 -20.707031 2.765625 -23.8125 4.203125 -26.46875 C 5.648438 -29.132812 7.65625 -31.203125 10.21875 -32.671875 C 12.78125 -34.140625 15.710938 -34.875 19.015625 -34.875 C 23.265625 -34.875 26.78125 -33.804688 29.5625 -31.671875 C 32.351562 -29.546875 34.226562 -26.566406 35.1875 -22.734375 L 25.828125 -22.734375 C 25.328125 -24.210938 24.488281 -25.375 23.3125 -26.21875 C 22.132812 -27.070312 20.679688 -27.5 18.953125 -27.5 C 16.472656 -27.5 14.507812 -26.597656 13.0625 -24.796875 C 11.625 -23.003906 10.90625 -20.457031 10.90625 -17.15625 C 10.90625 -13.894531 11.625 -11.363281 13.0625 -9.5625 C 14.507812 -7.769531 16.472656 -6.875 18.953125 -6.875 C 22.460938 -6.875 24.753906 -8.441406 25.828125 -11.578125 L 35.1875 -11.578125 C 34.226562 -7.867188 32.34375 -4.914062 29.53125 -2.71875 C 26.726562 -0.53125 23.222656 0.5625 19.015625 0.5625 C 15.710938 0.5625 12.78125 -0.171875 10.21875 -1.640625 C 7.65625 -3.109375 5.648438 -5.171875 4.203125 -7.828125 C 2.765625 -10.492188 2.046875 -13.601562 2.046875 -17.15625 Z M 2.046875 -17.15625 "/></g></g></g><g fill="#0c8862" fill-opacity="1"><g transform="translate(321.717243, 208.552517)"><g><path d="M 17.40625 0.5625 C 14.59375 0.5625 12.070312 0.0546875 9.84375 -0.953125 C 7.613281 -1.972656 5.847656 -3.347656 4.546875 -5.078125 C 3.242188 -6.816406 2.535156 -8.738281 2.421875 -10.84375 L 11.15625 -10.84375 C 11.3125 -9.519531 11.957031 -8.421875 13.09375 -7.546875 C 14.226562 -6.679688 15.644531 -6.25 17.34375 -6.25 C 18.988281 -6.25 20.273438 -6.578125 21.203125 -7.234375 C 22.140625 -7.898438 22.609375 -8.75 22.609375 -9.78125 C 22.609375 -10.894531 22.039062 -11.726562 20.90625 -12.28125 C 19.769531 -12.84375 17.960938 -13.457031 15.484375 -14.125 C 12.921875 -14.738281 10.820312 -15.375 9.1875 -16.03125 C 7.5625 -16.695312 6.160156 -17.710938 4.984375 -19.078125 C 3.804688 -20.441406 3.21875 -22.28125 3.21875 -24.59375 C 3.21875 -26.488281 3.765625 -28.21875 4.859375 -29.78125 C 5.953125 -31.351562 7.519531 -32.59375 9.5625 -33.5 C 11.613281 -34.414062 14.019531 -34.875 16.78125 -34.875 C 20.875 -34.875 24.132812 -33.847656 26.5625 -31.796875 C 29 -29.753906 30.34375 -27 30.59375 -23.53125 L 22.296875 -23.53125 C 22.171875 -24.894531 21.601562 -25.976562 20.59375 -26.78125 C 19.582031 -27.59375 18.226562 -28 16.53125 -28 C 14.96875 -28 13.757812 -27.707031 12.90625 -27.125 C 12.0625 -26.550781 11.640625 -25.75 11.640625 -24.71875 C 11.640625 -23.5625 12.21875 -22.679688 13.375 -22.078125 C 14.53125 -21.484375 16.328125 -20.875 18.765625 -20.25 C 21.242188 -19.632812 23.285156 -18.992188 24.890625 -18.328125 C 26.503906 -17.671875 27.898438 -16.648438 29.078125 -15.265625 C 30.253906 -13.878906 30.863281 -12.050781 30.90625 -9.78125 C 30.90625 -7.800781 30.359375 -6.023438 29.265625 -4.453125 C 28.171875 -2.890625 26.601562 -1.660156 24.5625 -0.765625 C 22.519531 0.117188 20.132812 0.5625 17.40625 0.5625 Z M 17.40625 0.5625 "/></g></g></g></svg>